<svg xmlns="http://www.w3.org/2000/svg" viewBox="0 0 124 124" fill="none">
  <g>
    <rect fill="#333" fill-opacity="0" x="0" y="0" width="60" height="60"/>
    <svg xmlns="http://www.w3.org/2000/svg" viewBox="-0.041744690388441086 -0.0001709502248559147 70.66464233398438 70.66097259521484">
      <path d="M70.62 26.25v8.07a1.4 1.4 0 0 1-.46 1.13l-9.29 9.28c-2.4 2.41-4.81 4.8-7.2 7.22a1.4 1.4 0 0 1-1.09.43h-13.3c-.17 0-.38.09-.47-.13s.06-.37.2-.51l1.81-1.82q6.78-6.78 13.57-13.55a1.65 1.65 0 0 0 .51-1.27V17.25a1.49 1.49 0 0 0-.47-1.12c-1.24-1.25-2.52-2.46-3.75-3.71-1-1-2.14-2-3.13-3.12C46.33 8 45 6.73 43.76 5.44S41.5 3.13 40.32 2A9.61 9.61 0 0 0 39 .72a.4.4 0 0 1-.2-.51c.09-.2.28-.2.46-.2h13.37a1.15 1.15 0 0 1 .86.35Q59 5.91 64.58 11.47c1.85 1.85 3.7 3.7 5.57 5.53a1.44 1.44 0 0 1 .47 1.13c-.01 2.71 0 5.42 0 8.12z" fill="#e98937"/>
      <path d="M26.2 15.82h-9a1.48 1.48 0 0 0-1.13.47c-1.36 1.36-2.74 2.68-4.1 4s-2.84 3-4.34 4.38c-1.23 1.16-2.39 2.37-3.58 3.56-1 1-2.12 2-3.06 3.11a3.25 3.25 0 0 1-.42.41C.32 32 .13 32 0 31.59a6.32 6.32 0 0 1 0-1.23V18.67a2.43 2.43 0 0 1 .88-2c1.34-1.26 2.63-2.6 3.94-3.91 1.63-1.63 3.28-3.26 4.91-4.9L15 2.58c.69-.7 1.4-1.38 2.08-2.08a1.47 1.47 0 0 1 1.09-.5h16a1.66 1.66 0 0 1 1.24.53q2.55 2.58 5.11 5.15l4.43 4.4 5.31 5.33c.49.49 1 1 1.49 1.45a1.79 1.79 0 0 1 .63 1.45V31.5c0 .16 0 .34-.19.41a.38.38 0 0 1-.38-.15c-1-1.05-2.1-2.08-3.11-3.15-.29-.3-.61-.55-.9-.84-1.81-1.86-3.64-3.71-5.47-5.54-2-2-4-4-6.06-6a1.3 1.3 0 0 0-1-.39z" fill="#d34a46"/>
      <path d="M24.61 70.66H18.2a1.75 1.75 0 0 1-1.39-.62c-1.5-1.56-3-3.08-4.59-4.59-1.8-1.77-3.55-3.59-5.34-5.38l-5.36-5.32a2.39 2.39 0 0 0-.23-.22A3.56 3.56 0 0 1 0 51.21c.1-4.51.11-9 0-13.52a4 4 0 0 1 1.38-3.28c3-2.86 5.82-5.79 8.73-8.7l4.64-4.64c.73-.73 1.47-1.45 2.18-2.19a1.65 1.65 0 0 1 1.28-.52h13.2c.17 0 .38 0 .45.19s-.06.31-.18.42c-1 1-2 1.95-3 2.94-.66.66-1.3 1.35-2 2s-1.58 1.53-2.36 2.31L22 28.67l-2.3 2.27c-.83.83-1.66 1.64-2.48 2.48a12.81 12.81 0 0 0-1.16 1.17 1.16 1.16 0 0 0-.28.73V53.7c0 .68.52 1 .91 1.44.88.93 1.85 1.76 2.73 2.69a26.27 26.27 0 0 0 2.12 2.1c.9.75 1.59 1.73 2.47 2.51 1.29 1.14 2.37 2.5 3.67 3.63.55.48 1 1.06 1.52 1.57.78.78 1.59 1.53 2.38 2.3.15.15.37.29.28.53s-.36.18-.57.18z" fill="#179940"/>
      <path d="M44.45 70.65h-8a1.37 1.37 0 0 1-1-.43q-8.3-8.31-16.62-16.62a1.36 1.36 0 0 1-.44-1V39.46c0-.21-.08-.47.16-.58s.4.11.53.27c.92 1.12 2 2.08 3 3.1q5.45 5.46 10.9 10.93c.45.45.93.88 1.36 1.35a1.4 1.4 0 0 0 1.15.43h17.79a2.24 2.24 0 0 0 1.72-.78c2.27-2.28 4.56-4.55 6.83-6.83L68 41.1c.66-.67 1.33-1.33 2-2 .12-.12.23-.32.44-.22s.13.32.13.49v4.43c0 2.74-.05 5.49 0 8.23a2.56 2.56 0 0 1-.89 2c-2.26 2.24-4.5 4.5-6.75 6.75l-6.78 6.74c-.84.84-1.66 1.71-2.49 2.56a1.57 1.57 0 0 1-1.22.54c-2.62.02-5.3.03-7.99.03z" fill="#1ca1de"/>
    </svg>
  </g>
</svg>
